<?xml version="1.0" encoding="UTF-8" standalone="no"?>
<!-- Created with Inkscape (http://www.inkscape.org/) -->

<svg
   width="210mm"
   height="297mm"
   viewBox="0 0 210 297"
   version="1.1"
   id="svg1"
   xml:space="preserve"
   inkscape:version="1.3.2 (091e20e, 2023-11-25)"
   sodipodi:docname="drawing.svg"
   xmlns:inkscape="http://www.inkscape.org/namespaces/inkscape"
   xmlns:sodipodi="http://sodipodi.sourceforge.net/DTD/sodipodi-0.dtd"
   xmlns="http://www.w3.org/2000/svg"
   xmlns:svg="http://www.w3.org/2000/svg"><sodipodi:namedview
     id="namedview1"
     pagecolor="#ffffff"
     bordercolor="#000000"
     borderopacity="0.25"
     inkscape:showpageshadow="2"
     inkscape:pageopacity="0.0"
     inkscape:pagecheckerboard="0"
     inkscape:deskcolor="#d1d1d1"
     inkscape:document-units="mm"
     inkscape:zoom="0.72248176"
     inkscape:cx="397.24186"
     inkscape:cy="561.25984"
     inkscape:window-width="1920"
     inkscape:window-height="1008"
     inkscape:window-x="0"
     inkscape:window-y="0"
     inkscape:window-maximized="1"
     inkscape:current-layer="layer1" /><defs
     id="defs1"><linearGradient
       id="swatch1"
       inkscape:swatch="solid"><stop
         style="stop-color:#000000;stop-opacity:1;"
         offset="0"
         id="stop1" /></linearGradient></defs><g
     inkscape:label="Layer 1"
     inkscape:groupmode="layer"
     id="layer1"><path
       style="fill:none;stroke-width:0.264583;stroke:#000000;stroke-opacity:1"
       d="m 98.463969,56.754169 0.0988,37.469844 -18.179611,0.182081 5.777669,3.659407 5.427882,2.763959 4.667674,4.57039 2.699377,7.22594 -0.720829,5.98757 -2.192771,6.32077 -4.927849,3.08555 -5.094213,2.50046 -4.975902,1.30848 -30.012674,-1.30627 0.419769,-37.167136 20.416284,-0.671798 -6.996231,-2.158328 -4.564248,-1.814184 -3.609887,-3.062423 -4.071544,-5.520999 -1.155753,-4.442944 0.299292,-3.545068 0.910553,-4.439758 2.504247,-4.78912 5.116898,-4.742987 4.522341,-1.06639 5.395113,-1.080907 z"
       id="path1" /><path
       style="fill:none;stroke:#000000;stroke-width:0.264583;stroke-opacity:1"
       d="m 105.11701,56.189022 0.41226,53.927508 1.92135,6.27124 3.62151,5.83472 3.87335,3.05867 3.65378,3.0306 7.59006,2.464 4.96187,1.00136 6.95141,-0.22179 -0.16232,-35.943662 5.70382,-1.040339 5.83391,-1.325438 3.30288,-2.412714 4.01759,-3.555595 3.00698,-3.529462 1.60608,-5.023012 0.66399,-6.14327 -1.07084,-4.022124 -0.29116,-0.566778 -22.55507,-0.170288 -0.0673,-11.185469 z"
       id="path2" /></g></svg>
