<svg class="icon-logo-vikinger1">
  <path
     style="fill:#ffffff;fill-opacity:1;stroke:#ffffff;stroke-width:0.132162;stroke-opacity:1"
     d="m 30.711153,6.3123778 0.05802,15.9204452 -10.675784,0.07737 3.392876,1.554836 3.187467,1.174369 2.741041,1.9419 1.585179,3.070205 -0.423299,2.544041 -1.287679,2.685612 -2.893829,1.311009 -2.991522,1.062413 -2.922047,0.555956 L 2.8569527,37.655517 3.1034562,21.863689 15.092703,21.578251 10.984239,20.661202 8.3039318,19.89038 6.184065,18.589198 3.7930922,16.243396 3.1143884,14.355648 3.2901455,12.849394 3.8248588,10.963 5.2954508,8.9281659 8.3002944,6.9129329 10.955992,6.4598386 14.124214,6.0005739 Z"
     id="path1" />
  <path
     style="fill:#ffffff;fill-opacity:1;stroke:#ffffff;stroke-width:0.132162;stroke-opacity:1"
     d="m 34.618079,6.072255 0.242105,22.91309 1.128291,2.664569 2.126692,2.479095 2.274586,1.29959 2.145643,1.287662 4.457183,1.046919 2.913806,0.425467 4.082141,-0.09423 -0.09531,-15.271991 3.349508,-0.442027 3.425901,-0.563161 1.939581,-1.02513 2.359289,-1.510725 1.765817,-1.499621 0.943153,-2.134214 0.389918,-2.610192 -0.628837,-1.708949 -0.170981,-0.240816 -13.245227,-0.07234 -0.0395,-4.7525609 z"
     id="path2" />
</svg>
