<?xml version="1.0" encoding="UTF-8" standalone="no"?>
<svg
   class="icon-logo"
   viewBox="0 0 28 40"
   preserveAspectRatio="xMinYMin meet"
   version="1.1"
   id="svg1"
   sodipodi:docname="drawing2.svg"
   inkscape:version="1.3.2 (091e20e, 2023-11-25)"
   xmlns:inkscape="http://www.inkscape.org/namespaces/inkscape"
   xmlns:sodipodi="http://sodipodi.sourceforge.net/DTD/sodipodi-0.dtd"
   xmlns="http://www.w3.org/2000/svg"
   xmlns:svg="http://www.w3.org/2000/svg">
  <defs
     id="defs1" />
  <sodipodi:namedview
     id="namedview1"
     pagecolor="#ffffff"
     bordercolor="#000000"
     borderopacity="0.25"
     inkscape:showpageshadow="2"
     inkscape:pageopacity="0.0"
     inkscape:pagecheckerboard="0"
     inkscape:deskcolor="#d1d1d1"
     inkscape:zoom="5.4660447"
     inkscape:cx="-58.726194"
     inkscape:cy="2.8356885"
     inkscape:window-width="1920"
     inkscape:window-height="1008"
     inkscape:window-x="0"
     inkscape:window-y="0"
     inkscape:window-maximized="1"
     inkscape:current-layer="svg1" />
  <path
     style="fill:#000000;stroke:#000000;stroke-width:0.0600084;stroke-opacity:1;fill-opacity:1"
     d="m 12.471714,11.541055 0.02298,8.286996 -4.2283301,0.04027 1.3438072,0.809331 1.2624519,0.611289 1.085637,1.010808 0.627838,1.59812 -0.167655,1.324238 -0.510008,1.397929 -1.146151,0.682414 -1.1848445,0.553013 -1.1573272,0.289389 -6.9805395,-0.288901 0.097632,-8.220047 4.74855,-0.148578 L 4.6585263,19.009979 3.5969438,18.608747 2.7573336,17.931448 1.8103472,16.710399 1.5415347,15.727778 1.6111464,14.943735 1.8229289,13.961819 2.4053825,12.902636 3.5955031,11.853656 4.6473383,11.617809 5.9021679,11.37875 Z"
     id="path1" />
  <path
     style="fill:#000000;stroke:#000000;stroke-width:0.0600084;stroke-opacity:1;fill-opacity:1"
     d="m 14.01912,11.416065 0.09589,11.926845 0.446879,1.386976 0.842314,1.290432 0.900889,0.676469 0.849819,0.670261 1.765345,0.544948 1.154064,0.221466 1.616803,-0.04905 -0.03775,-7.949459 1.326631,-0.230086 1.356888,-0.29314 0.768205,-0.533606 0.934437,-0.786371 0.699383,-0.780591 0.373552,-1.110912 0.154433,-1.358673 -0.249062,-0.889551 -0.06772,-0.125351 -5.246003,-0.03766 -0.01565,-2.473828 z"
     id="path2" />
</svg>
