<?xml version="1.0" encoding="UTF-8" standalone="no"?>
<svg
   class="icon-logo"
   viewBox="0 0 28 40"
   preserveAspectRatio="xMinYMin meet"
   version="1.1"
   id="svg1"
   sodipodi:docname="drawing2.svg"
   inkscape:version="1.3.2 (091e20e, 2023-11-25)"
   xmlns:inkscape="http://www.inkscape.org/namespaces/inkscape"
   xmlns:sodipodi="http://sodipodi.sourceforge.net/DTD/sodipodi-0.dtd"
   xmlns="http://www.w3.org/2000/svg"
   xmlns:svg="http://www.w3.org/2000/svg">
     <path d="M16,0H4C1.791,0,0,1.791,0,4v8c0,2.209,1.791,4,4,4h12c2.209,0,4-1.791,4-4V4C20,1.791,18.209,0,16,0zM18,12c0,1.103-0.897,2-2,2H4c-1.103,0-2-0.897-2-2V4c0-1.103,0.897-2,2-2h12c1.103,0,2,0.897,2,2V12z"></path>
      <path d="M0,10v2h20v-2H0z M5,20h10v-2H5V20z"></path>
  
</svg>
