<?xml version="1.0" encoding="UTF-8" standalone="no"?>
<svg
   version="1.1"
   viewBox="0 0 20 20"
   id="svg4"
   xmlns="http://www.w3.org/2000/svg"
   xmlns:svg="http://www.w3.org/2000/svg">
  <defs
     id="defs4" />
  <g
     id="g3"
     transform="matrix(0.22508783,0,0,0.22508783,-1.2142598,-1.2891228)">
    <path
       d="m 92.051,80.395 c -0.29688,-0.32422 -0.71484,-0.51172 -1.1562,-0.51172 h -3 v -38.945 c 0,-4.0664 -3.3086,-7.375 -7.375,-7.375 h -12.125 c -0.86328,0 -1.5625,0.69922 -1.5625,1.5625 0,0.86328 0.69922,1.5625 1.5625,1.5625 h 12.125 c 2.3438,0 4.25,1.9062 4.25,4.25 v 38.945 h -3.5625 v -38.086 c 0,-0.86328 -0.69922,-1.5625 -1.5625,-1.5625 h -11.875 c -2.0664,0.04297 -2.0469,3.0898 0,3.125 h 10.312 v 36.523 h -56.402 v -36.523 h 10.766 c 2.0586,-0.03125 2.0469,-3.0938 0,-3.125 h -12.328 c -0.86328,0 -1.5625,0.69922 -1.5625,1.5625 v 38.086 h -3.5625 v -38.945 c 0,-2.3438 1.9062,-4.25 4.25,-4.25 h 12.594 c 2.0586,-0.02734 2.0469,-3.0977 0,-3.125 h -12.594 c -4.0664,0 -7.375,3.3086 -7.375,7.375 v 38.945 h -3 c -0.4375,0 -0.85938,0.18359 -1.1562,0.51172 -0.29688,0.32422 -0.44141,0.76172 -0.39844,1.1992 l 0.60547,6.4062 c 0.30859,3.2266 2.9805,5.6602 6.2227,5.6602 h 71.48 c 3.2422,0 5.918,-2.4336 6.2227,-5.6641 l 0.60547,-6.4062 c 0.04297,-0.4375 -0.10547,-0.875 -0.39844,-1.1992 z m -3.3164,7.3086 c -0.15234,1.6133 -1.4922,2.832 -3.1133,2.832 h -71.48 c -1.6211,0 -2.9609,-1.2188 -3.1133,-2.832 l -0.44531,-4.6953 c 0.41797,0.0039 78.598,0 78.598,0 z"
       id="path1" />
    <path
       d="M 55.18,85.297 H 44.582 c -2.0508,0.03516 -2.0547,3.0898 0,3.125 H 55.18 c 2.0508,-0.03516 2.0547,-3.0898 0,-3.125 z"
       id="path2" />
    <path
       d="m 29.27,16.621 2.7969,0.91406 v 10.73 c 0.09766,2.0703 2.9453,1.6562 4.3125,2.0742 -2.5977,5.1133 -1.7695,11.605 1.9219,15.969 2.0703,2.5039 3.1719,5.3555 3.1953,8.2422 -1.6133,1.2422 -1.3164,3.7812 -1.3164,5.5938 0,1.9219 1.3672,3.5273 3.1758,3.9062 v 2.2188 c 0.14844,8.5391 13.348,8.5625 13.504,0 v -2.2227 c 1.8125,-0.37891 3.1758,-1.9844 3.1758,-3.9062 -0.0039,-1.8086 0.29297,-4.3281 -1.2891,-5.5703 0.10547,-3.0156 1.1914,-5.9062 3.1016,-8.1719 3.8359,-4.4688 4.6094,-11.203 1.8047,-16.406 1.0547,-0.10938 2.4023,-0.41406 2.3789,-1.7344 v -10.73 l 0.51562,-0.16797 2.3516,2.0078 v 7.8125 c 0.02734,2.0547 3.0938,2.0508 3.125,0 v -8.5352 c 0,-0.45703 -0.19922,-0.89062 -0.54688,-1.1875 l -1.8047,-1.543 c 0.13281,-0.22656 0.22656,-0.47656 0.23047,-0.75391 0.01563,-0.66406 -0.39062,-1.2617 -1.0078,-1.4961 l -19.293,-7.3242 c -0.35547,-0.13672 -0.75,-0.13672 -1.1094,0 l -19.293,7.3242 c -1.3477,0.46875 -1.3125,2.543 0.07031,2.9453 z m 24.469,49.652 c 0.01172,4.3984 -7.2695,4.4102 -7.2539,0 v -2.1367 h 7.2539 z m 3.1758,-6.125 c -0.03906,0.92578 -0.91797,0.89453 -1.6133,0.86328 h -10.379 c -0.68359,0.03125 -1.582,0.0625 -1.6133,-0.86328 v -2.6523 c 0,-0.47656 0.38672,-0.86328 0.86328,-0.86328 h 11.875 c 0.47656,0 0.86328,0.38672 0.86328,0.86328 v 2.6523 z m 6,-33.172 c -1.543,0.29297 -3.0742,0.5 -4.6289,0.69531 -1.9219,0.23438 -1.7227,3.1211 0.1875,3.1133 0.63281,-0.04687 1.2656,-0.16016 1.8945,-0.23828 0.92187,1.457 1.5391,3.0859 1.7617,4.7773 0.40625,3.25 -0.55469,6.5742 -2.668,9.0664 -2.1562,2.5586 -3.4727,5.7461 -3.7852,9.1094 h -1.9961 l 0.63672,-7.4102 c 0.74609,-0.76953 2.4961,-1.7344 2.4062,-2.8008 v -4.7109 c -0.03516,-2.0547 -3.0898,-2.0547 -3.125,0 v 4 c -0.5625,0.59766 -2.3633,1.6797 -2.3398,2.6172 0,0 -0.71484,8.3086 -0.71484,8.3086 h -1.3242 l -0.71484,-8.3086 c -0.03516,-0.40625 -0.22656,-0.78125 -0.53125,-1.0469 l -1.8086,-1.5703 v -4 c -0.03125,-2.0547 -3.0938,-2.0547 -3.125,0 v 4.7109 c -0.09375,1.0664 1.6602,2.0312 2.4062,2.8008 l 0.63672,7.4102 h -1.5 c -0.25391,-3.2539 -1.5781,-6.4062 -3.8711,-9.1797 -0.78516,-0.94922 -1.4102,-1.9961 -1.8633,-3.1133 -1.3984,-3.3203 -1.0703,-7.3672 0.85156,-10.43 4.4102,0.52734 8.7773,0.71875 13.172,0.48828 0.86328,-0.04297 1.5234,-0.77734 1.4805,-1.6406 -0.04297,-0.86328 -0.77344,-1.5195 -1.6406,-1.4805 -5.793,0.28906 -11.668,-0.11328 -17.516,-1.1719 v -8.4141 l 13.371,4.3711 c 0.31641,0.10156 0.65625,0.10156 0.96875,0 l 13.379,-4.3711 z m -13.863,-17.488 14.602,5.543 -14.602,4.7695 -14.602,-4.7695 z"
       id="path3" />
  </g>
</svg>
