<?xml version="1.0" encoding="UTF-8" standalone="no"?>
<svg
   version="1.1"
   viewBox="0 0 20 20"
   id="svg4"
   sodipodi:docname="noun-learn-6833636.svg"
   inkscape:version="1.3.2 (091e20e, 2023-11-25)"
   xmlns:inkscape="http://www.inkscape.org/namespaces/inkscape"
   xmlns:sodipodi="http://sodipodi.sourceforge.net/DTD/sodipodi-0.dtd"
   xmlns="http://www.w3.org/2000/svg"
   xmlns:svg="http://www.w3.org/2000/svg">
  <defs
     id="defs4" />
  <sodipodi:namedview
     id="namedview4"
     pagecolor="#ffffff"
     bordercolor="#000000"
     borderopacity="0.25"
     inkscape:showpageshadow="2"
     inkscape:pageopacity="0.0"
     inkscape:pagecheckerboard="0"
     inkscape:deskcolor="#d1d1d1"
     inkscape:zoom="6.0074074"
     inkscape:cx="54.932182"
     inkscape:cy="67.5"
     inkscape:window-width="1920"
     inkscape:window-height="1008"
     inkscape:window-x="0"
     inkscape:window-y="0"
     inkscape:window-maximized="1"
     inkscape:current-layer="svg4" />
  <g
     id="g3">
    <path
       d="m92.051 80.395c-0.29688-0.32422-0.71484-0.51172-1.1562-0.51172h-3v-38.945c0-4.0664-3.3086-7.375-7.375-7.375h-12.125c-0.86328 0-1.5625 0.69922-1.5625 1.5625s0.69922 1.5625 1.5625 1.5625h12.125c2.3438 0 4.25 1.9062 4.25 4.25v38.945h-3.5625v-38.086c0-0.86328-0.69922-1.5625-1.5625-1.5625h-11.875c-2.0664 0.042969-2.0469 3.0898 0 3.125h10.312v36.523h-56.402v-36.523h10.766c2.0586-0.03125 2.0469-3.0938 0-3.125h-12.328c-0.86328 0-1.5625 0.69922-1.5625 1.5625v38.086h-3.5625v-38.945c0-2.3438 1.9062-4.25 4.25-4.25h12.594c2.0586-0.027344 2.0469-3.0977 0-3.125h-12.594c-4.0664 0-7.375 3.3086-7.375 7.375v38.945h-3c-0.4375 0-0.85938 0.18359-1.1562 0.51172-0.29688 0.32422-0.44141 0.76172-0.39844 1.1992l0.60547 6.4062c0.30859 3.2266 2.9805 5.6602 6.2227 5.6602h71.48c3.2422 0 5.918-2.4336 6.2227-5.6641l0.60547-6.4062c0.042969-0.4375-0.10547-0.875-0.39844-1.1992zm-3.3164 7.3086c-0.15234 1.6133-1.4922 2.832-3.1133 2.832h-71.48c-1.6211 0-2.9609-1.2188-3.1133-2.832l-0.44531-4.6953c0.41797 0.003907 78.598 0 78.598 0z"
       id="path1" />
    <path
       d="m55.18 85.297h-10.598c-2.0508 0.035156-2.0547 3.0898 0 3.125h10.598c2.0508-0.035156 2.0547-3.0898 0-3.125z"
       id="path2" />
    <path
       d="m29.27 16.621 2.7969 0.91406v10.73c0.097656 2.0703 2.9453 1.6562 4.3125 2.0742-2.5977 5.1133-1.7695 11.605 1.9219 15.969 2.0703 2.5039 3.1719 5.3555 3.1953 8.2422-1.6133 1.2422-1.3164 3.7812-1.3164 5.5938 0 1.9219 1.3672 3.5273 3.1758 3.9062v2.2188c0.14844 8.5391 13.348 8.5625 13.504 0v-2.2227c1.8125-0.37891 3.1758-1.9844 3.1758-3.9062-0.003906-1.8086 0.29297-4.3281-1.2891-5.5703 0.10547-3.0156 1.1914-5.9062 3.1016-8.1719 3.8359-4.4688 4.6094-11.203 1.8047-16.406 1.0547-0.10938 2.4023-0.41406 2.3789-1.7344v-10.73l0.51562-0.16797 2.3516 2.0078v7.8125c0.027343 2.0547 3.0938 2.0508 3.125 0v-8.5352c0-0.45703-0.19922-0.89062-0.54688-1.1875l-1.8047-1.543c0.13281-0.22656 0.22656-0.47656 0.23047-0.75391 0.015625-0.66406-0.39062-1.2617-1.0078-1.4961l-19.293-7.3242c-0.35547-0.13672-0.75-0.13672-1.1094 0l-19.293 7.3242c-1.3477 0.46875-1.3125 2.543 0.070312 2.9453zm24.469 49.652c0.011719 4.3984-7.2695 4.4102-7.2539 0v-2.1367h7.2539zm3.1758-6.125c-0.039062 0.92578-0.91797 0.89453-1.6133 0.86328h-10.379c-0.68359 0.03125-1.582 0.0625-1.6133-0.86328v-2.6523c0-0.47656 0.38672-0.86328 0.86328-0.86328h11.875c0.47656 0 0.86328 0.38672 0.86328 0.86328v2.6523zm6-33.172c-1.543 0.29297-3.0742 0.5-4.6289 0.69531-1.9219 0.23438-1.7227 3.1211 0.1875 3.1133 0.63281-0.046875 1.2656-0.16016 1.8945-0.23828 0.92187 1.457 1.5391 3.0859 1.7617 4.7773 0.40625 3.25-0.55469 6.5742-2.668 9.0664-2.1562 2.5586-3.4727 5.7461-3.7852 9.1094h-1.9961l0.63672-7.4102c0.74609-0.76953 2.4961-1.7344 2.4062-2.8008v-4.7109c-0.035156-2.0547-3.0898-2.0547-3.125 0v4c-0.5625 0.59766-2.3633 1.6797-2.3398 2.6172 0 0-0.71484 8.3086-0.71484 8.3086h-1.3242l-0.71484-8.3086c-0.035156-0.40625-0.22656-0.78125-0.53125-1.0469l-1.8086-1.5703v-4c-0.03125-2.0547-3.0938-2.0547-3.125 0v4.7109c-0.09375 1.0664 1.6602 2.0312 2.4062 2.8008l0.63672 7.4102h-1.5c-0.25391-3.2539-1.5781-6.4062-3.8711-9.1797-0.78516-0.94922-1.4102-1.9961-1.8633-3.1133-1.3984-3.3203-1.0703-7.3672 0.85156-10.43 4.4102 0.52734 8.7773 0.71875 13.172 0.48828 0.86328-0.042969 1.5234-0.77734 1.4805-1.6406-0.042968-0.86328-0.77344-1.5195-1.6406-1.4805-5.793 0.28906-11.668-0.11328-17.516-1.1719v-8.4141l13.371 4.3711c0.31641 0.10156 0.65625 0.10156 0.96875 0l13.379-4.3711zm-13.863-17.488 14.602 5.543-14.602 4.7695-14.602-4.7695z"
       id="path3" />
  </g>
</svg>
