<?xml version="1.0" encoding="UTF-8" standalone="no"?>
<svg
   data-name="Layer 1"
   viewBox="0 0 100 125"
   x="0px"
   y="0px"
   version="1.1"
   id="svg2"
   sodipodi:docname="noun-timeline-3554137.svg"
   inkscape:version="1.3.2 (091e20e, 2023-11-25)"
   xmlns:inkscape="http://www.inkscape.org/namespaces/inkscape"
   xmlns:sodipodi="http://sodipodi.sourceforge.net/DTD/sodipodi-0.dtd"
   xmlns="http://www.w3.org/2000/svg"
   xmlns:svg="http://www.w3.org/2000/svg">
  <defs
     id="defs2" />
  <sodipodi:namedview
     id="namedview2"
     pagecolor="#ffffff"
     bordercolor="#000000"
     borderopacity="0.25"
     inkscape:showpageshadow="2"
     inkscape:pageopacity="0.0"
     inkscape:pagecheckerboard="0"
     inkscape:deskcolor="#d1d1d1"
     inkscape:zoom="6.488"
     inkscape:cx="49.938348"
     inkscape:cy="62.5"
     inkscape:window-width="1920"
     inkscape:window-height="1008"
     inkscape:window-x="0"
     inkscape:window-y="0"
     inkscape:window-maximized="1"
     inkscape:current-layer="svg2" />
  <title
     id="title1">Artboard 50</title>
  <path
     d="M72,24a10,10,0,0,0-3,19.54V66a8,8,0,0,1-16,0V59.54a10,10,0,0,0,0-19.08V34a14,14,0,0,0-28,0V56.46a10,10,0,1,0,6,0V34a8,8,0,0,1,16,0v6.46a10,10,0,0,0,0,19.08V66a14,14,0,0,0,28,0V43.54A10,10,0,0,0,72,24ZM32,66a4,4,0,1,1-4-4A4,4,0,0,1,32,66ZM50,54a4,4,0,1,1,4-4A4,4,0,0,1,50,54ZM72,38a4,4,0,1,1,4-4A4,4,0,0,1,72,38Z"
     id="path1" />
</svg>
